<?xml version="1.0" standalone="no"?>
<!DOCTYPE svg PUBLIC "-//W3C//DTD SVG 20010904//EN"
 "http://www.w3.org/TR/2001/REC-SVG-20010904/DTD/svg10.dtd">
<svg version="1.0" xmlns="http://www.w3.org/2000/svg"
 width="1408.000000pt" height="1408.000000pt" viewBox="0 0 1408.000000 1408.000000"
 preserveAspectRatio="xMidYMid meet">
<metadata>
Created by potrace 1.16, written by Peter Selinger 2001-2019
</metadata>
<g transform="translate(0.000000,1408.000000) scale(0.100000,-0.100000)"
fill="#000000" stroke="none">
<path d="M3525 12773 c-174 -17 -411 -68 -586 -128 -137 -47 -399 -177 -524
-261 -558 -374 -920 -938 -1042 -1624 -15 -87 -17 -346 -22 -3235 -3 -1727 -3
-3360 0 -3630 5 -443 8 -502 28 -610 50 -280 127 -506 248 -734 251 -469 652
-842 1138 -1055 253 -112 487 -172 764 -196 78 -7 1265 -10 3591 -8 3296 3
3480 4 3580 21 228 40 408 92 606 177 465 200 877 576 1131 1032 147 264 254
604 283 898 8 83 10 1110 7 3680 l-3 3565 -21 110 c-71 375 -186 663 -378 950
-364 543 -906 894 -1580 1023 l-140 26 -3520 1 c-1936 1 -3538 0 -3560 -2z
m6710 -1067 c-28 -19 -119 -26 -370 -27 -191 0 -220 1 -223 15 -4 16 10 17
463 24 128 2 147 0 130 -12z m-752 -99 c-4 -8 -66 -70 -138 -138 -71 -68 -265
-254 -430 -414 -774 -750 -789 -764 -802 -753 -14 12 -32 -7 362 373 137 132
387 373 555 535 168 162 339 327 380 367 48 47 76 67 78 58 2 -8 0 -21 -5 -28z
m932 -29 c3 -18 4 -82 1 -143 -2 -60 -5 -199 -5 -307 -1 -171 -3 -198 -16
-198 -14 0 -16 40 -14 340 1 280 3 340 14 340 8 0 17 -15 20 -32z m-166 -12
c-10 -21 -19 -26 -48 -26 l-36 0 45 30 c24 16 46 28 47 26 2 -2 -2 -15 -8 -30z
m-629 -154 c17 -57 30 -105 28 -106 -25 -22 -130 -87 -133 -84 -3 3 8 70 25
149 16 79 30 148 30 154 0 27 21 -21 50 -113z m485 31 c-18 -16 -31 -21 -33
-14 -8 23 8 41 35 41 l28 -1 -30 -26z m-126 -70 c-5 -21 -9 -41 -9 -45 0 -5
-26 -8 -57 -8 -49 0 -55 2 -43 14 19 18 103 75 111 76 4 0 3 -17 -2 -37z
m-4431 -670 l372 -558 0 -261 0 -261 147 -124 c81 -68 184 -156 229 -194 44
-39 93 -81 108 -93 l28 -21 -51 -63 c-28 -34 -47 -66 -43 -70 4 -3 72 -32 151
-62 80 -31 147 -59 150 -63 4 -5 5 -240 3 -523 l-4 -515 -21 -11 c-28 -13
-225 -116 -452 -236 -194 -103 -295 -156 -502 -264 l-133 -69 0 -196 c0 -107
3 -198 6 -201 3 -3 39 7 80 23 41 16 82 29 90 29 12 0 14 -52 14 -350 l0 -350
24 0 c13 0 44 3 70 6 l46 7 0 372 0 373 43 17 c23 9 141 52 262 95 121 43 335
120 475 170 410 147 482 173 735 263 287 103 431 154 544 196 47 17 92 31 100
31 9 0 139 -40 289 -89 l273 -88 1 -497 c0 -273 4 -499 9 -501 4 -3 35 12 69
33 l61 39 0 437 c-1 326 2 436 11 436 18 0 879 -280 923 -300 11 -5 43 -11 70
-12 28 -2 49 -6 48 -10 -2 -5 -3 -98 -3 -208 l0 -200 -72 0 c-39 0 -69 -2 -66
-5 3 -3 29 -12 59 -20 30 -7 99 -32 154 -55 55 -23 105 -42 111 -43 6 -1 42
37 80 84 94 117 122 149 129 149 3 0 72 -55 153 -123 81 -67 182 -151 225
-185 42 -35 77 -67 77 -72 0 -5 -43 -61 -95 -125 -52 -63 -95 -119 -95 -124 0
-5 21 -39 47 -77 136 -202 213 -463 213 -724 0 -320 -109 -616 -319 -867 -35
-41 -57 -72 -50 -67 28 17 70 12 254 -27 226 -49 740 -176 880 -218 54 -17
101 -28 103 -26 2 2 17 52 33 111 15 58 30 108 32 110 2 3 112 -116 243 -262
131 -147 256 -286 276 -308 20 -23 36 -42 34 -43 -1 -1 -112 -27 -246 -58
-135 -30 -310 -71 -390 -90 -79 -19 -145 -33 -147 -31 -1 1 11 49 28 106 16
58 28 111 27 119 -2 9 -29 22 -68 32 -36 9 -146 38 -245 64 -99 26 -205 53
-235 60 -30 7 -125 29 -210 49 -186 45 -691 146 -726 146 -14 0 -41 -8 -62
-19 -59 -30 -220 -78 -317 -95 -114 -20 -332 -21 -453 -1 -197 32 -405 120
-568 240 -84 62 -85 62 -167 69 -125 9 -383 24 -567 32 -103 4 -159 10 -150
16 8 4 62 37 120 73 58 35 112 68 120 73 11 6 -9 26 -83 82 l-98 73 -117 6
-117 7 -233 142 c-128 78 -237 142 -243 142 -8 0 -9 -36 -5 -119 l6 -118 -203
-7 c-554 -18 -1181 -61 -1631 -111 -262 -29 -277 -28 -182 14 27 12 126 72
219 133 l169 112 97 -30 98 -30 200 140 c110 78 227 162 261 187 l61 46 98
-18 c54 -9 176 -31 272 -48 l173 -31 77 72 c42 39 155 148 252 241 l177 169
-43 99 c-24 54 -46 107 -49 117 -5 16 31 45 212 170 121 84 225 159 232 167
11 14 19 1 57 -87 89 -209 226 -508 232 -508 4 0 29 29 56 65 27 36 49 65 49
65 1 0 26 -7 56 -15 84 -22 83 -23 104 53 11 37 21 73 24 80 3 9 -17 12 -81
12 l-85 0 -74 103 c-41 56 -111 154 -156 218 l-82 117 0 178 c0 99 -3 237 -7
308 l-6 128 -36 -5 c-74 -10 -1289 -198 -1361 -210 l-75 -12 87 -55 88 -55 0
-71 c0 -61 7 -90 47 -195 35 -94 46 -136 45 -174 -1 -27 -5 -51 -10 -53 -4 -1
-106 -45 -227 -96 l-219 -94 3 -244 3 -243 -139 -34 c-76 -19 -286 -82 -466
-142 -226 -74 -360 -113 -430 -124 -201 -32 -336 -65 -493 -120 -87 -32 -172
-64 -189 -72 l-30 -14 25 21 c91 80 91 79 80 99 -16 31 -12 69 10 91 24 24 77
26 102 4 16 -16 21 -14 70 20 29 20 62 44 74 54 17 14 43 108 134 487 62 259
143 594 179 745 l67 274 -183 213 -183 214 0 377 0 377 -109 58 -110 58 -298
-25 c-164 -14 -375 -30 -468 -37 l-170 -11 -135 93 c-99 69 -177 135 -292 248
l-157 154 26 31 c28 34 145 114 551 376 l272 175 0 210 0 210 101 101 102 102
-103 609 c-56 334 -105 628 -108 652 l-5 44 39 -30 c21 -17 158 -118 304 -224
146 -106 345 -251 443 -323 221 -162 246 -180 251 -175 2 2 42 112 89 244 47
132 120 335 162 450 42 116 81 222 87 237 10 27 25 33 94 37 29 1 41 -16 402
-556z m4310 548 c10 -6 2 -17 -30 -44 -46 -39 -54 -36 -44 19 6 29 11 34 34
34 15 0 33 -4 40 -9z m-164 -91 l-7 -52 -46 7 c-87 12 -88 13 -14 59 37 24 69
42 71 41 2 -2 0 -26 -4 -55z m-121 -112 l38 -9 -68 -44 c-37 -24 -69 -42 -71
-40 -2 2 -1 28 3 59 8 62 0 59 98 34z m-179 -85 c-3 -27 -9 -51 -13 -54 -3 -3
-31 -1 -61 5 l-55 11 65 43 c36 23 66 42 68 42 2 0 0 -21 -4 -47z m286 -36 l0
-44 -101 -61 c-55 -34 -102 -62 -105 -62 -2 0 -4 17 -3 38 0 36 3 39 102 104
56 36 103 67 105 67 1 1 2 -19 2 -42z m-412 -77 c35 0 26 -14 -29 -49 l-52
-32 7 32 c3 17 6 38 6 46 0 11 7 14 23 9 12 -3 32 -6 45 -6z m1188 -7 c-3 -10
-10 -40 -16 -68 -20 -99 -18 -95 -49 -95 -28 0 -30 3 -45 69 -26 113 -27 111
50 111 58 0 65 -2 60 -17z m-1342 -62 c-6 -38 -9 -41 -38 -40 -67 1 -71 12
-14 50 29 19 54 34 56 33 1 -1 0 -20 -4 -43z m566 -110 l0 -110 -89 52 c-67
39 -86 55 -78 63 11 11 158 104 164 104 2 0 3 -49 3 -109z m-668 9 c30 0 10
-21 -52 -54 l-51 -28 7 39 c9 53 12 56 46 49 17 -3 39 -6 50 -6z m-177 -84
c-8 -38 -21 -43 -73 -30 -21 6 -19 9 25 39 26 18 49 31 51 30 2 -2 0 -19 -3
-39z m1575 -9 c0 -12 14 -35 30 -50 17 -16 30 -39 30 -51 0 -31 -34 -72 -65
-80 -34 -9 -83 18 -91 50 -9 35 0 39 33 14 52 -38 93 3 48 50 -20 21 -24 33
-19 58 7 36 34 44 34 9z m-854 -53 l76 -47 -73 -48 c-41 -26 -77 -48 -81 -49
-5 0 -8 43 -8 95 0 52 2 95 5 95 2 0 39 -21 81 -46z m-819 -32 c19 -6 15 -11
-34 -40 -53 -31 -55 -32 -49 -10 3 13 6 31 6 41 0 18 33 22 77 9z m-1167
-1066 c0 -972 -1 -1035 -17 -1054 -10 -11 -160 -93 -333 -182 -173 -89 -343
-178 -377 -197 l-63 -35 0 911 0 911 158 137 c87 76 247 215 357 308 109 94
215 185 234 202 20 18 37 33 38 33 2 0 3 -465 3 -1034z m500 723 c609 -522
732 -631 726 -646 -3 -8 -6 -41 -6 -73 l0 -58 -67 27 c-187 75 -608 231 -625
231 -9 0 -98 -33 -199 -74 -101 -41 -185 -73 -185 -72 -1 0 -4 221 -7 489 l-6
488 37 -30 c20 -16 170 -143 332 -282z m504 273 c-6 -30 -10 -32 -47 -32 -22
0 -38 2 -36 5 12 11 84 62 87 60 1 -1 -1 -16 -4 -33z m1106 -131 l0 -110 -72
41 c-123 69 -122 58 -21 121 48 31 89 56 91 56 1 1 2 -48 2 -108z m-1211 30
c11 -7 4 -14 -27 -30 l-42 -21 0 23 c0 13 3 27 7 30 9 10 45 8 62 -2z m-149
-61 c0 -16 -7 -20 -32 -20 l-33 0 30 19 c17 11 31 20 33 20 1 1 2 -8 2 -19z
m1268 -128 l43 -29 -23 -15 c-13 -8 -49 -32 -80 -52 l-58 -37 0 101 0 100 38
-19 c20 -11 56 -33 80 -49z m89 -319 c-3 -2 -43 20 -91 48 l-86 52 87 53 88
54 3 -101 c1 -56 1 -103 -1 -106z m-119 -134 c-40 -26 -76 -48 -80 -49 -5 0
-8 45 -8 100 l0 100 81 -52 81 -51 -74 -48z m120 -193 l-3 -53 -80 48 c-44 27
-81 52 -82 56 -2 4 34 31 80 60 l82 52 3 -55 c2 -30 2 -78 0 -108z m-1648
-453 l0 -428 -155 -80 c-86 -44 -160 -81 -165 -83 -6 -2 -10 159 -10 443 l0
447 31 11 c17 7 86 35 152 63 67 29 128 52 135 53 9 1 12 -91 12 -426z m207
403 c32 -14 159 -63 283 -109 124 -46 366 -138 537 -203 l313 -119 0 -242 c0
-134 -3 -243 -6 -243 -3 0 -107 78 -232 172 -125 95 -262 199 -305 231 l-78
59 -112 -57 c-62 -32 -194 -100 -294 -152 l-183 -95 0 391 c0 236 4 391 9 391
5 0 36 -11 68 -24z m1374 -66 c21 -17 21 -17 -55 -63 -42 -26 -79 -47 -81 -47
-3 0 -5 43 -5 96 l0 95 59 -32 c33 -18 69 -40 82 -49z m69 -199 l0 -110 -57
33 c-32 18 -73 42 -91 53 l-33 20 53 33 c29 18 69 43 88 56 19 12 36 23 38 23
1 1 2 -48 2 -108z m-93 -162 c46 -29 45 -33 -17 -70 -14 -8 -42 -25 -62 -38
l-38 -23 0 102 0 102 38 -23 c20 -13 56 -35 79 -50z m93 -218 l0 -110 -90 56
-90 56 88 53 c48 30 88 54 90 54 1 0 2 -49 2 -109z m-538 -282 c373 -284 507
-387 615 -471 34 -26 101 -78 150 -114 264 -201 341 -260 370 -285 l31 -27
-91 -41 c-51 -22 -172 -76 -269 -120 l-177 -79 -423 138 c-233 76 -597 195
-810 265 l-388 126 18 27 c9 15 80 117 157 227 77 111 208 299 290 418 83 119
153 216 157 214 4 -1 170 -126 370 -278z m-659 114 c-38 -54 -138 -197 -221
-318 -84 -121 -163 -233 -177 -250 l-24 -30 -1 221 c0 166 3 224 13 231 6 6
102 57 212 113 110 57 213 112 230 121 16 10 31 16 33 14 3 -2 -27 -48 -65
-102z m1065 35 c37 -23 71 -44 75 -48 5 -4 -28 -30 -72 -58 l-81 -52 0 100 c0
55 2 100 5 100 3 0 36 -19 73 -42z m132 -253 l0 -126 -61 43 c-33 24 -74 54
-91 68 l-30 25 88 57 c49 31 90 57 92 57 1 1 2 -55 2 -124z m-1750 -252 l0
-248 -188 -67 c-103 -36 -353 -126 -557 -198 -203 -72 -480 -171 -615 -220
-435 -157 -865 -312 -882 -317 -16 -5 -18 2 -18 60 l0 66 143 72 c116 59 673
350 1192 624 55 29 177 92 270 141 94 48 276 143 405 211 129 67 238 122 243
122 4 1 7 -110 7 -246z m-3835 -2969 c10 -4 23 -21 30 -38 33 -79 -60 -142
-120 -81 -62 61 6 151 90 119z m-306 -68 c38 -30 32 -92 -13 -122 -66 -43
-150 46 -102 108 26 34 81 41 115 14z m7025 -28 c41 -37 43 -72 8 -108 -37
-37 -70 -38 -106 -5 -42 39 -33 95 19 123 30 17 51 14 79 -10z m-7339 -43 c49
-49 16 -125 -55 -125 -44 0 -80 35 -80 77 0 34 42 73 80 73 19 0 40 -9 55 -25z
m7664 -41 c27 -34 27 -72 -1 -101 -38 -41 -105 -28 -127 26 -10 24 -10 34 3
59 18 34 28 40 73 41 23 1 37 -6 52 -25z m-7976 -36 c26 -31 22 -82 -9 -107
-15 -12 -38 -21 -51 -21 -33 0 -73 42 -73 78 0 71 87 105 133 50z m8284 -40
c29 -27 31 -80 3 -108 -44 -44 -130 -9 -130 54 0 66 78 100 127 54z m-8600
-40 c29 -27 30 -67 2 -102 -43 -55 -129 -21 -129 51 0 66 77 98 127 51z m8907
-49 c45 -35 32 -108 -22 -127 -81 -28 -142 75 -76 127 15 12 37 21 49 21 12 0
34 -9 49 -21z m-9217 -41 c49 -45 14 -128 -54 -128 -44 0 -73 30 -73 75 0 68
77 101 127 53z m9513 -53 c67 -35 41 -127 -38 -133 -38 -3 -43 0 -62 30 -23
38 -19 64 16 96 29 26 45 27 84 7z m-9835 -31 c29 -11 46 -58 34 -93 -13 -36
-35 -51 -78 -51 -35 0 -71 39 -71 77 0 49 64 86 115 67z m2351 -33 c80 -36
113 -132 72 -210 -30 -58 -65 -83 -126 -89 -91 -8 -160 46 -170 133 -6 57 2
86 35 126 50 59 116 73 189 40z m7783 -46 c49 -25 56 -81 15 -122 -20 -20 -31
-24 -57 -19 -83 16 -92 129 -12 149 11 2 21 5 23 6 2 0 16 -6 31 -14z m-10425
-46 c52 -41 19 -129 -48 -129 -69 0 -103 87 -50 129 15 12 37 21 49 21 12 0
34 -9 49 -21z m2284 -65 c1 -20 4 -45 7 -55 5 -13 0 -20 -17 -24 -13 -2 -125
-25 -250 -50 -448 -89 -895 -204 -1310 -338 -93 -30 -168 -50 -168 -45 0 5 -9
28 -20 50 -11 23 -19 42 -17 44 1 1 79 27 172 57 337 111 774 227 1170 312
161 35 397 82 421 84 6 1 11 -15 12 -35z m8461 -30 c28 -35 26 -69 -4 -99 -30
-31 -66 -32 -101 -2 -32 28 -36 78 -8 108 27 30 87 26 113 -7z m-11042 -26
c47 -44 14 -128 -51 -128 -67 0 -99 77 -51 125 30 31 71 32 102 3z m643 -387
c96 -69 94 -210 -4 -270 -44 -27 -120 -28 -163 -1 -61 37 -89 107 -72 175 12
48 60 101 105 115 39 12 104 3 134 -19z m4160 -217 c0 -14 -60 -328 -75 -391
-5 -21 -3 -21 41 10 l46 32 246 3 c220 2 251 1 282 -15 47 -24 62 -56 56 -123
-2 -30 -34 -209 -71 -397 l-68 -343 -123 0 c-67 0 -125 3 -127 8 -2 4 22 138
54 297 32 160 58 302 58 317 1 16 -6 31 -17 37 -9 5 -100 8 -201 8 -175 -2
-184 -3 -200 -24 -12 -14 -37 -119 -76 -320 -32 -164 -60 -304 -63 -310 -3
-10 -38 -13 -129 -13 l-125 0 6 28 c3 15 58 294 122 620 l117 592 124 0 c106
0 123 -2 123 -16z m2180 -4 c0 -11 -9 -62 -20 -113 -18 -89 -153 -773 -163
-830 -8 -50 8 -55 173 -56 176 -2 216 4 235 33 17 27 87 370 79 390 -5 14 -31
16 -170 16 -125 0 -164 3 -164 13 0 15 28 166 36 190 5 16 25 17 239 17 257 0
300 -7 326 -56 20 -38 15 -82 -46 -389 -63 -320 -76 -354 -150 -400 l-48 -30
-410 -3 -409 -3 6 28 c3 15 51 258 106 538 55 281 107 547 116 593 l17 82 123
0 c118 0 124 -1 124 -20z m-4600 -69 c0 -27 -29 -172 -40 -198 l-10 -23 -433
0 c-239 0 -436 2 -439 5 -3 3 3 40 12 83 10 42 21 94 24 115 l7 37 439 0 c425
0 440 -1 440 -19z m296 -288 c-3 -10 -16 -76 -30 -148 -14 -71 -39 -201 -56
-288 -17 -86 -28 -166 -25 -177 6 -19 16 -20 199 -20 175 0 194 2 210 18 11
13 37 122 76 321 33 166 60 304 60 306 0 3 56 5 125 5 87 0 125 -3 125 -11 0
-11 -152 -792 -165 -846 -5 -22 -9 -23 -125 -23 l-120 0 6 42 7 42 -23 -22
c-58 -54 -77 -57 -337 -57 -229 0 -243 1 -270 21 -49 36 -57 66 -43 153 12 78
128 666 135 689 3 9 38 12 130 12 116 0 126 -1 121 -17z m1629 -90 l-22 -108
-260 -3 c-237 -2 -262 -4 -277 -21 -10 -11 -30 -88 -53 -199 -29 -148 -34
-184 -23 -197 11 -13 51 -15 266 -15 244 0 254 -1 254 -19 0 -17 -19 -119 -35
-188 l-5 -23 -328 1 c-226 0 -337 4 -361 12 -52 18 -76 58 -74 120 3 80 110
602 132 644 50 98 67 102 472 103 l336 0 -22 -107z m2175 95 c-1 -7 -9 -51
-18 -98 l-18 -85 -312 -3 -312 -2 -16 -25 c-8 -13 -16 -46 -17 -72 l-2 -48
270 -5 c334 -6 345 -10 345 -114 0 -51 -45 -277 -61 -309 -17 -33 -50 -67 -84
-85 -26 -15 -80 -17 -432 -20 -222 -2 -403 -1 -403 2 0 5 27 137 35 174 l5 22
309 0 c280 0 311 2 329 18 25 21 46 111 30 129 -8 10 -72 13 -265 13 -291 0
-313 4 -339 67 -15 35 -14 45 11 173 39 196 61 237 142 266 53 19 803 20 803
2z m2104 -2 c46 -19 66 -52 65 -106 0 -25 -33 -205 -72 -400 l-72 -355 -417 0
c-407 0 -417 0 -445 21 -47 35 -49 71 -15 248 40 203 65 245 158 266 39 9 494
14 494 5 0 -4 -14 -77 -25 -131 -4 -20 -9 -20 -168 -16 -189 5 -189 5 -207
-83 -18 -87 -17 -89 75 -98 44 -4 139 -6 210 -4 l130 4 44 216 c24 118 41 223
38 231 -6 14 -44 16 -322 16 -297 0 -316 1 -311 18 2 9 10 44 16 77 6 33 13
70 16 83 l4 22 386 0 c306 0 391 -3 418 -14z m506 7 c0 -3 -27 -144 -60 -311
-49 -248 -58 -308 -48 -318 9 -9 66 -14 195 -16 172 -3 184 -2 203 17 15 16
33 88 82 328 l62 307 123 0 c105 0 123 -2 123 -16 0 -14 -44 -240 -134 -694
l-33 -165 -122 -3 -121 -3 6 42 7 42 -39 -31 c-58 -46 -114 -54 -352 -50 -181
3 -212 5 -236 21 -33 22 -59 79 -52 116 3 14 31 157 61 316 31 160 63 320 72
358 l15 67 124 0 c68 0 124 -3 124 -7z m-7370 -30 c-1 -10 -7 -45 -15 -78 -27
-110 -47 -100 205 -98 154 1 220 -2 220 -9 0 -6 -8 -51 -17 -100 l-17 -88
-227 0 -227 0 -41 -217 c-23 -120 -44 -226 -47 -235 -5 -16 -21 -18 -146 -18
l-140 0 5 23 c3 12 40 200 82 417 42 217 78 400 80 407 3 7 48 11 144 12 130
2 141 0 141 -16z m7840 -1110 c0 -7 -11 -57 -25 -120 l-5 -23 -4169 0 -4168 0
15 75 15 75 4168 0 c2293 0 4169 -3 4169 -7z"/>
<path d="M3871 10544 c0 -11 3 -14 6 -6 3 7 2 16 -1 19 -3 4 -6 -2 -5 -13z"/>
<path d="M4868 8683 c7 -3 16 -2 19 1 4 3 -2 6 -13 5 -11 0 -14 -3 -6 -6z"/>
<path d="M4478 8453 c7 -3 16 -2 19 1 4 3 -2 6 -13 5 -11 0 -14 -3 -6 -6z"/>
<path d="M4438 8443 c7 -3 16 -2 19 1 4 3 -2 6 -13 5 -11 0 -14 -3 -6 -6z"/>
<path d="M5580 8376 c0 -2 7 -7 16 -10 8 -3 12 -2 9 4 -6 10 -25 14 -25 6z"/>
<path d="M9060 7050 l0 -90 70 0 70 0 0 -115 c0 -111 -1 -115 -22 -119 -188
-37 -306 -79 -435 -156 -393 -233 -620 -650 -599 -1100 27 -582 426 -1037
1007 -1151 93 -18 347 -15 438 5 249 56 437 155 611 322 192 185 314 416 356
671 18 114 18 308 -1 414 -37 213 -141 429 -284 592 -28 32 -51 61 -51 65 0 4
14 24 31 45 l31 38 35 -27 c19 -14 38 -22 43 -18 20 22 100 124 100 128 0 6
-266 225 -277 228 -9 3 -113 -115 -113 -128 0 -3 11 -15 25 -26 l25 -19 -32
-42 c-18 -23 -34 -44 -35 -45 -1 -2 -21 9 -45 26 -112 76 -301 149 -461 177
l-38 6 3 112 3 112 74 3 74 3 -7 61 c-3 33 -6 74 -6 89 l0 29 -295 0 -295 0 0
-90z m565 -544 c451 -134 755 -528 755 -981 0 -474 -317 -880 -780 -998 -123
-31 -388 -30 -505 1 -188 52 -401 187 -518 329 -366 448 -315 1068 121 1446
123 106 272 178 452 218 129 28 352 21 475 -15z"/>
<path d="M9310 6360 l0 -90 53 0 52 0 -3 90 -3 90 -50 0 -49 0 0 -90z"/>
<path d="M8888 6322 c-16 -10 -28 -20 -28 -24 0 -14 82 -138 92 -138 5 0 22 7
39 16 l30 15 -22 37 c-77 127 -68 120 -111 94z"/>
<path d="M8556 5996 c-8 -14 -17 -29 -18 -35 -2 -6 31 -31 72 -55 l75 -44 17
27 c10 14 18 31 18 38 0 10 -128 93 -143 93 -3 0 -12 -11 -21 -24z"/>
<path d="M8430 5520 l0 -50 85 0 c81 0 85 1 91 24 3 13 4 35 2 47 -3 23 -7 24
-90 27 l-88 3 0 -51z"/>
<path d="M10110 5520 l0 -50 90 0 90 0 0 50 0 50 -90 0 -90 0 0 -50z"/>
<path d="M9260 5446 c0 -2 8 -10 18 -17 15 -13 16 -12 3 4 -13 16 -21 21 -21
13z"/>
<path d="M8610 5139 c-36 -21 -69 -40 -74 -42 -9 -3 30 -77 40 -77 4 0 135 79
143 86 5 5 -32 74 -39 73 -3 0 -34 -18 -70 -40z"/>
<path d="M10009 5144 c-12 -19 -20 -36 -18 -38 29 -19 142 -86 147 -86 15 0
44 62 35 71 -6 6 -40 27 -76 49 l-66 38 -22 -34z"/>
<path d="M8905 4813 c-22 -37 -41 -70 -43 -74 -2 -4 14 -17 34 -30 21 -13 39
-18 41 -13 2 5 21 41 43 78 22 38 39 70 38 71 -40 27 -54 35 -63 35 -6 0 -29
-30 -50 -67z"/>
<path d="M9728 4864 c-16 -8 -28 -19 -28 -24 0 -5 19 -40 42 -78 l42 -70 33
16 c18 9 33 20 33 25 0 13 -80 147 -88 147 -4 -1 -19 -8 -34 -16z"/>
<path d="M9310 4680 l0 -90 48 0 47 0 -3 90 -3 90 -45 0 -44 0 0 -90z"/>
<path d="M5370 6446 c0 -2 8 -10 18 -17 15 -13 16 -12 3 4 -13 16 -21 21 -21
13z"/>
<path d="M4791 5694 c0 -11 3 -14 6 -6 3 7 2 16 -1 19 -3 4 -6 -2 -5 -13z"/>
</g>
</svg>
